<!DOCTYPE svg PUBLIC "-//W3C//DTD SVG 1.1//EN" "http://www.w3.org/Graphics/SVG/1.1/DTD/svg11.dtd">
<!-- Uploaded to: SVG Repo, www.svgrepo.com, Transformed by: SVG Repo Mixer Tools -->
<svg width="256px" height="256px" viewBox="-96 -96 1152.00 1152.00" fill="none" xmlns="http://www.w3.org/2000/svg">
<g id="SVGRepo_bgCarrier" stroke-width="0"/>
<g id="SVGRepo_tracerCarrier" stroke-linecap="round" stroke-linejoin="round"/>
<g id="SVGRepo_iconCarrier"> <path d="M474.582 608.402C459.722 702.784 476.948 903.213 347.711 914.184C299.617 914.789 250.784 923.406 202.961 917.397C194.008 915.031 184.763 910.075 177 904.743C159.804 897.833 156.455 883.635 157.136 867.267C173.329 631.407 164.533 395.69 158.842 159.698C158.577 106.216 178.661 49.6746 241.315 51.8776C290.502 50.1376 339.729 49.4816 388.931 48.0486C456.225 46.0886 523.502 43.5276 590.802 41.8536C649.046 37.9846 737.297 37.3536 739.684 115.329C755.128 264.352 767.409 413.78 786.345 562.413C796.738 658.733 810.765 757.629 797.149 853.974C785.095 908.584 723.865 904.437 679.596 907.253C640.041 908.951 600.459 910.113 560.878 911.108C488.525 912.038 492.176 859.357 489.788 803.441C484.849 738.606 479.226 673.821 475.402 608.904C475.13 608.737 474.856 608.569 474.582 608.402ZM403.116 775.311C421.544 637.723 430.154 498.2 454.366 361.135C427.667 355.154 402.643 345.468 376.809 336.815C370.228 334.419 364.139 329.248 359.227 324.029C344.559 308.517 360.321 281.048 381.238 285.431C407.376 294.306 431.237 304.836 460.082 309.181C461.726 263.719 463.327 219.467 464.943 174.778C424.439 174.817 383.645 178.923 343.241 182.699C337.09 183.208 333.667 185.179 332.906 192.042C319.798 258.698 286.963 315.721 215.881 332.235C214.02 332.693 211.729 336.522 211.759 338.751C213.159 410.016 218.063 481.205 219.225 552.464C219.428 633.035 212.983 713.159 211.594 793.79C274.944 778.36 338.284 775.697 403.116 775.311ZM751.339 759.669C748.166 612.258 721.11 465.95 708.835 319.311C632.656 317.182 572.668 248.982 577.568 174.343C555.644 174.343 534.525 174.343 515.708 174.343C514.652 218.526 513.602 262.414 512.537 306.954C536.925 304.123 570.074 272.748 588.898 300.256C612.327 341.268 533.966 356.871 505.58 362.167C518.306 497.047 523.369 634.315 536.164 769.286C607.976 766.076 679.062 762.899 751.339 759.669ZM689.119 126.929C691.903 108.039 687.267 99.0986 670.797 96.0296C593.3 85.4286 514.364 97.9776 436.376 97.5216C365.992 102.11 290.491 90.8746 222.563 109.386C213.553 119.387 212.102 132.308 211.118 147.873C370.664 120.231 529.725 115.951 689.119 126.929ZM752.722 809.443C680.554 817.423 609.746 812.132 539.083 821.222C541.748 834.511 536.059 853.077 549.319 859.432C580.287 863.154 611.422 860.17 642.418 858.392C672.34 856.739 702.269 855.187 732.181 853.365C755.321 852.527 749.395 827.555 752.722 809.443ZM209.93 865.72C255.936 867.915 302.032 862.705 348.073 861.153C366.746 860.049 381.473 845.767 386.271 826.238C327.152 827.641 268.525 832.297 209.929 842.622C209.93 849.84 209.93 857.101 209.93 865.72ZM703.978 267.277C701.035 237.605 698.122 208.227 695.075 177.502C670.336 177.502 646.484 177.502 622.621 177.502C625.082 219.018 656.436 257.153 703.978 267.277ZM281.839 190.868C257.902 193.525 234.198 196.156 210.888 198.743C210.888 226.723 210.888 254.275 210.888 282.048C244.415 275.515 275.049 235.895 281.839 190.868Z" fill="#000000"/> <path d="M403.116 775.309C338.285 775.695 274.944 778.359 211.594 793.788C212.982 713.166 219.428 633.028 219.226 552.462C218.063 481.203 213.159 410.014 211.759 338.749C211.729 336.52 214.02 332.692 215.882 332.234C286.956 315.737 319.807 258.672 332.906 192.04C333.667 185.177 337.09 183.206 343.241 182.698C383.643 178.921 424.443 174.813 464.943 174.777C463.327 219.466 461.726 263.718 460.082 309.18C431.234 304.835 407.378 294.305 381.238 285.428C360.329 281.052 344.55 308.514 359.228 324.029C364.14 329.248 370.229 334.419 376.81 336.813C402.65 345.469 427.661 355.149 454.367 361.134C430.155 498.192 421.542 637.727 403.116 775.309Z" fill="white"/> <path d="M751.337 759.669C679.06 762.899 607.973 766.076 536.162 769.286C523.367 634.305 518.305 497.057 505.578 362.167C533.896 356.892 612.339 341.267 588.896 300.257C570.038 272.749 536.959 304.128 512.534 306.955C513.599 262.414 514.648 218.527 515.705 174.344C534.522 174.344 555.642 174.344 577.565 174.344C572.662 248.978 632.656 317.186 708.832 319.312C721.109 465.958 748.163 612.25 751.337 759.669Z" fill="white"/> <path d="M689.118 126.928C529.724 115.951 370.663 120.23 211.117 147.873C212.101 132.308 213.552 119.386 222.563 109.392C290.502 90.8738 365.983 102.111 436.374 97.5208C514.365 97.9778 593.297 85.4288 670.796 96.0258C687.266 99.0968 691.902 108.038 689.118 126.928Z" fill="white"/> <path d="M752.724 809.441C749.47 827.53 755.27 852.542 732.184 853.364C702.271 855.186 672.342 856.737 642.42 858.391C611.425 860.169 580.288 863.153 549.324 859.429C536.031 853.061 541.802 834.527 539.086 821.22C609.748 812.131 680.555 817.421 752.724 809.441Z" fill="white"/> <path d="M209.93 865.72C209.93 857.101 209.93 849.84 209.93 842.622C268.526 832.297 327.153 827.641 386.272 826.238C381.474 845.767 366.747 860.048 348.074 861.151C302.03 862.706 255.939 867.915 209.93 865.72Z" fill="white"/> <path d="M703.974 267.275C656.432 257.151 625.078 219.016 622.617 177.5C646.48 177.5 670.332 177.5 695.071 177.5C698.118 208.225 701.032 237.603 703.974 267.275Z" fill="white"/> <path d="M281.842 190.867C275.053 235.893 244.418 275.513 210.891 282.047C210.891 254.274 210.891 226.723 210.891 198.742C234.201 196.155 257.905 193.524 281.842 190.867Z" fill="white"/> </g>
</svg>